<?xml version="1.0" standalone="no"?>
<!DOCTYPE svg PUBLIC "-//W3C//DTD SVG 20010904//EN"
 "http://www.w3.org/TR/2001/REC-SVG-20010904/DTD/svg10.dtd">
<svg version="1.0" xmlns="http://www.w3.org/2000/svg"
 width="300.000000pt" height="300.000000pt" viewBox="0 0 300.000000 300.000000"
 preserveAspectRatio="xMidYMid meet">
<metadata>
Created by potrace 1.10, written by Peter Selinger 2001-2011
</metadata>
<g transform="translate(0.000000,300.000000) scale(0.100000,-0.100000)"
fill="#c80000" stroke="none">
<path d="M853 1627 l2 -1287 -327 0 c-280 0 -328 -2 -328 -15 0 -10 16 -15 64
-17 l65 -3 -64 -89 c-58 -81 -71 -113 -43 -104 5 2 40 46 77 98 l67 95 147 3
148 3 -76 -96 c-67 -84 -82 -115 -57 -115 4 0 43 47 87 105 l80 104 130 1 129
0 -40 -42 c-46 -48 -84 -108 -84 -131 0 -34 19 -25 40 18 12 25 45 70 72 100
l50 55 124 0 125 0 -66 -81 c-36 -45 -65 -85 -65 -90 0 -28 35 2 96 80 l69 90
138 0 c108 1 137 -2 131 -11 -4 -7 -36 -50 -71 -95 -36 -46 -61 -87 -58 -93 4
-6 11 -10 15 -8 12 4 150 189 150 200 0 4 63 8 141 8 l141 0 -76 -84 c-42 -46
-76 -88 -76 -95 0 -28 31 -4 105 83 l80 95 122 0 122 1 -9 -30 c-11 -38 -41
-81 -80 -114 -17 -13 -30 -29 -30 -35 0 -25 30 -8 78 43 39 41 53 65 58 95 l7
41 129 0 130 0 -51 -59 c-46 -54 -64 -91 -43 -91 5 0 35 34 68 74 l59 75 126
0 127 1 -64 -97 c-35 -54 -64 -104 -64 -110 0 -35 32 -2 94 97 l68 110 44 0
c32 0 44 4 44 15 0 13 -115 15 -972 15 l-973 0 3 1267 2 1268 140 0 c77 0 361
-1 630 -3 l490 -2 0 -190 0 -190 -23 0 c-38 0 -123 -48 -162 -92 -54 -59 -78
-120 -78 -198 -1 -134 84 -249 210 -286 l53 -15 0 -114 c0 -62 3 -120 6 -129
5 -14 -12 -16 -155 -16 -136 0 -161 -2 -161 -15 0 -13 24 -15 160 -15 l160 0
2 -262 c2 -202 6 -262 16 -266 10 -3 12 49 10 262 l-3 266 203 0 c159 0 203 3
200 13 -4 9 -57 13 -204 17 l-199 5 -4 126 -3 126 48 7 c92 12 177 76 227 170
32 60 31 183 -2 250 -45 92 -149 166 -233 166 l-38 0 0 205 0 205 -168 0 c-93
0 -392 3 -664 7 l-496 6 1 -1286z m1443 809 c65 -30 120 -95 141 -165 58 -200
-128 -386 -328 -328 -184 54 -251 285 -125 434 68 81 208 107 312 59z"/>
</g>
</svg>
