 <svg  version="1.0" xmlns="http://www.w3.org/2000/svg"  width="300.000000pt" height="300.000000pt" viewBox="0 0 300.000000 300.000000"  preserveAspectRatio="xMidYMid meet">  <g transform="translate(0.000000,300.000000) scale(0.100000,-0.100000)" fill="#c80000" stroke="none"> <path d="M852 1625 l3 -1285 -327 0 c-280 0 -328 -2 -328 -15 0 -10 16 -15 64 -17 l65 -3 -64 -89 c-58 -82 -69 -106 -45 -106 4 0 40 45 80 100 l71 100 145 0 144 0 -75 -95 c-67 -84 -82 -115 -56 -115 5 0 44 47 87 105 l79 104 129 1 129 0 -46 -49 c-60 -64 -92 -125 -73 -140 11 -9 18 -2 36 34 12 25 45 70 72 100 l50 55 125 0 125 0 -66 -80 c-36 -43 -66 -84 -66 -90 0 -29 34 -1 96 79 l69 90 138 0 c108 1 137 -2 130 -11 -4 -7 -36 -50 -71 -95 -35 -46 -60 -88 -57 -93 4 -6 11 -10 15 -8 12 4 150 189 150 200 0 4 63 8 141 8 l141 0 -76 -84 c-74 -81 -89 -106 -63 -106 10 0 146 147 168 181 3 6 60 8 125 7 l120 -3 -8 -33 c-5 -18 -31 -56 -58 -84 -28 -29 -50 -55 -50 -60 0 -20 30 -4 72 40 53 54 68 80 68 116 l0 26 131 0 131 0 -56 -65 c-50 -57 -63 -85 -37 -85 4 0 34 34 67 74 l59 75 123 0 c67 1 122 -1 122 -4 0 -3 -27 -47 -60 -98 -33 -52 -60 -99 -60 -105 0 -34 32 0 94 98 l68 110 44 0 c32 0 44 4 44 15 0 13 -115 15 -972 15 l-973 0 3 1267 c1 697 3 1267 5 1268 1 1 284 0 630 -3 l627 -5 0 -188 0 -189 -23 0 c-38 0 -123 -48 -162 -92 -55 -60 -79 -121 -79 -199 0 -132 86 -249 211 -285 l53 -15 0 -114 c0 -62 3 -120 6 -129 5 -14 -12 -16 -155 -16 -136 0 -161 -2 -161 -15 0 -13 24 -15 160 -15 l160 0 0 -255 0 -254 -150 -193 c-82 -106 -148 -197 -147 -202 8 -26 33 0 167 174 80 105 148 190 152 190 3 0 8 -4 10 -10 2 -5 73 -100 158 -210 140 -180 180 -222 180 -189 0 6 -76 109 -170 229 l-170 218 0 251 0 251 201 0 c156 0 200 3 197 13 -4 9 -57 13 -204 17 l-199 5 -4 126 -3 126 48 7 c58 7 141 53 178 97 95 112 99 266 11 381 -41 55 -138 108 -197 108 l-38 0 0 203 0 204 -442 6 c-244 4 -543 7 -666 7 l-222 0 2 -1285z m1444 811 c164 -76 202 -296 73 -425 -168 -168 -449 -50 -449 189 1 107 49 188 142 234 70 35 162 36 234 2z"/> <path d="M2288 2353 c-26 -25 -28 -26 -46 -10 -10 9 -24 17 -30 17 -20 0 -13 -29 9 -41 21 -11 21 -11 -5 -38 -14 -15 -26 -32 -26 -39 0 -21 28 -13 50 15 l20 26 30 -28 c24 -23 33 -26 43 -16 9 10 5 18 -21 39 l-33 27 25 24 c25 23 35 51 18 51 -4 0 -20 -12 -34 -27z"/> <path d="M2064 2333 l-21 -27 -28 22 c-15 12 -32 22 -36 22 -19 0 -8 -29 19 -48 l27 -21 -29 -30 c-23 -24 -27 -34 -18 -43 9 -9 19 -4 41 22 l29 35 29 -27 c16 -16 34 -28 41 -28 22 0 12 25 -20 52 l-33 26 23 24 c12 14 22 30 22 36 0 21 -26 13 -46 -15z"/> <path d="M2150 2208 c0 -7 12 -25 27 -40 27 -28 27 -29 10 -57 -25 -42 -1 -54 30 -15 12 16 23 33 23 37 0 5 -15 26 -32 47 -33 39 -58 51 -58 28z"/> <path d="M2103 2020 c-41 -18 -50 -29 -37 -42 3 -4 24 2 47 13 50 22 122 24 170 4 33 -13 47 -12 47 7 0 4 -16 15 -36 23 -51 21 -140 19 -191 -5z"/> </g> </svg> 