<svg xmlns="http://www.w3.org/2000/svg" xmlns:xlink="http://www.w3.org/1999/xlink" version="1.1" width="595.276pt" height="841.89pt" viewBox="0 0 595.276 841.89">
<defs>
<clipPath id="clip_0">
<path transform="matrix(1,0,0,-1,0,841.89)" d="M0 0H595.276V841.89H0Z"/>
</clipPath>
<clipPath id="clip_1">
<path transform="matrix(1,0,0,-.99999889,34.65861,787.04147)" d="M0 0H522.2397V6.339565H0Z"/>
</clipPath>
<clipPath id="clip_2">
<path transform="matrix(1,0,0,-.99999889,34.65861,787.04147)" d="M0 0H522.2397V6.339565H0Z"/>
</clipPath>
<clipPath id="clip_3">
<path transform="matrix(1.0000004,0,0,-1,34.7045,831.6297)" d="M0 0H32.36942V42.94794H0Z"/>
</clipPath>
<clipPath id="clip_4">
<path transform="matrix(1.0000004,0,0,-1,34.7045,831.6297)" d="M0 0H32.36942V42.94794H0Z"/>
</clipPath>
<clipPath id="clip_5">
<path transform="matrix(1.0000001,0,0,-1,97.28,827.9403)" d="M0 0H34.5809V42.9257H0Z"/>
</clipPath>
<clipPath id="clip_6">
<path transform="matrix(1.0000001,0,0,-1,97.28,827.9403)" d="M0 0H34.5809V42.9257H0Z"/>
</clipPath>
<clipPath id="clip_7">
<path transform="matrix(1.0000001,0,0,-1.0000002,159.2347,825.1421)" d="M0 0H33.1645V41.8015H0Z"/>
</clipPath>
<clipPath id="clip_8">
<path transform="matrix(1.0000001,0,0,-1.0000002,159.2347,825.1421)" d="M0 0H33.1645V41.8015H0Z"/>
</clipPath>
<clipPath id="clip_9">
<path transform="matrix(.999999,0,0,-1,211.1168,826.16018)" d="M0 0H31.14203V37.13311H0Z"/>
</clipPath>
<clipPath id="clip_10">
<path transform="matrix(.999999,0,0,-1,211.1168,826.16018)" d="M0 0H31.14203V37.13311H0Z"/>
</clipPath>
<clipPath id="clip_11">
<path transform="matrix(1.000001,0,0,-1.0000002,275.7107,827.88369)" d="M0 0H33.37149V42.26832H0Z"/>
</clipPath>
<clipPath id="clip_12">
<path transform="matrix(1.000001,0,0,-1.0000002,275.7107,827.88369)" d="M0 0H33.37149V42.26832H0Z"/>
</clipPath>
<clipPath id="clip_13">
<path transform="matrix(1.0000016,0,0,-1,333.337,827.22738)" d="M0 0H36.28214V40.16607H0Z"/>
</clipPath>
<clipPath id="clip_14">
<path transform="matrix(1.0000016,0,0,-1,333.337,827.22738)" d="M0 0H36.28214V40.16607H0Z"/>
</clipPath>
<clipPath id="clip_15">
<path transform="matrix(.9999981,0,0,-1,395.8326,824.684)" d="M0 0H28.70843V38.68338H0Z"/>
</clipPath>
<clipPath id="clip_16">
<path transform="matrix(.9999981,0,0,-1,395.8326,824.684)" d="M0 0H28.70843V38.68338H0Z"/>
</clipPath>
<clipPath id="clip_17">
<path transform="matrix(1.0000007,0,0,-.99999997,447.6516,824.2377)" d="M0 0H27.28956V31.40431H0Z"/>
</clipPath>
<clipPath id="clip_18">
<path transform="matrix(1.0000007,0,0,-.99999997,447.6516,824.2377)" d="M0 0H27.28956V31.40431H0Z"/>
</clipPath>
<clipPath id="clip_19">
<path transform="matrix(1.0000023,0,0,-1.0000001,507.8345,835.93447)" d="M0 0H32.97615V48.33843H0Z"/>
</clipPath>
<clipPath id="clip_20">
<path transform="matrix(1.0000023,0,0,-1.0000001,507.8345,835.93447)" d="M0 0H32.97615V48.33843H0Z"/>
</clipPath>
<clipPath id="clip_21">
<path transform="matrix(1.0000104,0,0,-.99999997,169.4081,787.5165)" d="M0 0H6.441538V779.7387H0Z"/>
</clipPath>
<clipPath id="clip_22">
<path transform="matrix(1.0000104,0,0,-.99999997,169.4081,787.5165)" d="M0 0H6.441538V779.7387H0Z"/>
</clipPath>
<clipPath id="clip_23">
<path transform="matrix(1.0000001,0,0,-.99998626,169.7145,14.93811)" d="M0 0H263.6461V7.160377H0Z"/>
</clipPath>
<clipPath id="clip_24">
<path transform="matrix(1.0000001,0,0,-.99998626,169.7145,14.93811)" d="M0 0H263.6461V7.160377H0Z"/>
</clipPath>
<clipPath id="clip_25">
<path transform="matrix(.9999958,0,0,-.9999992,426.3549,164.36322)" d="M0 0H7.005736V155.5603H0Z"/>
</clipPath>
<clipPath id="clip_26">
<path transform="matrix(.9999958,0,0,-.9999992,426.3549,164.36322)" d="M0 0H7.005736V155.5603H0Z"/>
</clipPath>
<clipPath id="clip_27">
<path transform="matrix(.9999992,0,0,-.9999997,379.5771,282.5517)" d="M0 0H124.0601V124.0601H0Z"/>
</clipPath>
<clipPath id="clip_28">
<path transform="matrix(.9999992,0,0,-.9999997,379.5771,282.5517)" d="M0 0H124.0601V124.0601H0Z"/>
</clipPath>
<clipPath id="clip_29">
<path transform="matrix(.9999912,0,0,-.9999993,435.4939,441.825)" d="M0 0H8.341474V168.4541H0Z"/>
</clipPath>
<clipPath id="clip_30">
<path transform="matrix(.9999912,0,0,-.9999993,435.4939,441.825)" d="M0 0H8.341474V168.4541H0Z"/>
</clipPath>
<clipPath id="clip_31">
<path transform="matrix(.9999998,0,0,-.9999943,373.1787,337.6477)" d="M0 0H148.9592V6.191716H0Z"/>
</clipPath>
<clipPath id="clip_32">
<path transform="matrix(.9999998,0,0,-.9999943,373.1787,337.6477)" d="M0 0H148.9592V6.191716H0Z"/>
</clipPath>
<clipPath id="clip_33">
<path transform="matrix(1,0,0,-.9999998,24.54546,800.1818)" d="M0 0H546V763.6364H0Z"/>
</clipPath>
<clipPath id="clip_34">
<path transform="matrix(1,0,0,-.9999998,24.54546,800.1818)" d="M0 0H546V763.6364H0Z"/>
</clipPath>
</defs>
<g clip-path="url(#clip_0)">
<path transform="matrix(1,0,0,-1,0,841.89)" d="M0 0H595.275V841.89H0Z" fill="#ffffff"/>
</g>
<g clip-path="url(#clip_1)">
<g clip-path="url(#clip_2)">
<path transform="matrix(1,0,0,-.99999889,0,841.88998)" stroke-width="5.62389" stroke-linecap="round" stroke-linejoin="round" fill="none" stroke="#d20000" d="M37.72619 58.12055 553.8307 57.91614"/>
</g>
</g>
<g clip-path="url(#clip_3)">
<g clip-path="url(#clip_4)">
<path transform="matrix(1.0000004,0,0,-1,-.000011444092,841.89)" stroke-width="5.62389" stroke-linecap="round" stroke-linejoin="round" fill="none" stroke="#d20000" d="M64.00635 50.14068 37.77208 13.32789"/>
</g>
</g>
<g clip-path="url(#clip_5)">
<g clip-path="url(#clip_6)">
<path transform="matrix(1.0000001,0,0,-1,-.000015258789,841.89)" stroke-width="5.62389" stroke-linecap="round" stroke-linejoin="round" fill="none" stroke="#d20000" d="M128.7933 53.80785 100.3476 17.0173"/>
</g>
</g>
<g clip-path="url(#clip_7)">
<g clip-path="url(#clip_8)">
<path transform="matrix(1.0000001,0,0,-1.0000002,-.000015258789,841.89)" stroke-width="5.62389" stroke-linecap="round" stroke-linejoin="round" fill="none" stroke="#d20000" d="M189.3316 55.48183C176.7538 45.4884 167.7441 33.59962 162.3022 19.81548"/>
</g>
</g>
<g clip-path="url(#clip_9)">
<g clip-path="url(#clip_10)">
<path transform="matrix(.999999,0,0,-1,.00021362305,841.89)" stroke-width="5.62389" stroke-linecap="round" stroke-linejoin="round" fill="none" stroke="#d20000" d="M239.1912 49.79538 214.1844 18.79742"/>
</g>
</g>
<g clip-path="url(#clip_11)">
<g clip-path="url(#clip_12)">
<path transform="matrix(1.000001,0,0,-1.0000002,-.0002746582,841.89)" stroke-width="5.62389" stroke-linecap="round" stroke-linejoin="round" fill="none" stroke="#d20000" d="M306.0146 53.20706 278.7783 17.07389"/>
</g>
</g>
<g clip-path="url(#clip_13)">
<g clip-path="url(#clip_14)">
<path transform="matrix(1.0000016,0,0,-1,-.0005187988,841.89)" stroke-width="5.62389" stroke-linecap="round" stroke-linejoin="round" fill="none" stroke="#d20000" d="M366.5516 51.76113 336.4046 17.73021"/>
</g>
</g>
<g clip-path="url(#clip_15)">
<g clip-path="url(#clip_16)">
<path transform="matrix(.9999981,0,0,-1,.00076293948,841.89)" stroke-width="5.62389" stroke-linecap="round" stroke-linejoin="round" fill="none" stroke="#d20000" d="M421.4734 52.82181C420.8264 41.86327 413.3019 31.01386 398.9001 20.27358"/>
</g>
</g>
<g clip-path="url(#clip_17)">
<g clip-path="url(#clip_18)">
<path transform="matrix(1.0000007,0,0,-.99999997,-.00030517579,841.89)" stroke-width="5.62389" stroke-linecap="round" stroke-linejoin="round" fill="none" stroke="#d20000" d="M471.8736 45.98905 450.7192 20.71989"/>
</g>
</g>
<g clip-path="url(#clip_19)">
<g clip-path="url(#clip_20)">
<path transform="matrix(1.0000023,0,0,-1.0000001,-.001159668,841.89)" stroke-width="5.62389" stroke-linecap="round" stroke-linejoin="round" fill="none" stroke="#d20000" d="M537.7431 51.22639 510.9021 9.023113"/>
</g>
</g>
<g clip-path="url(#clip_21)">
<g clip-path="url(#clip_22)">
<path transform="matrix(1.0000104,0,0,-.99999997,-.0017547608,841.89)" stroke-width="5.62389" stroke-linecap="round" stroke-linejoin="round" fill="none" stroke="#d20000" d="M172.4757 57.44113 172.7821 831.0447"/>
</g>
</g>
<g clip-path="url(#clip_23)">
<g clip-path="url(#clip_24)">
<path transform="matrix(1.0000001,0,0,-.99998626,-.000015258789,841.8786)" stroke-width="5.62389" stroke-linecap="round" stroke-linejoin="round" fill="none" stroke="#d20000" d="M172.7821 831.0447 430.293 830.0195"/>
</g>
</g>
<g clip-path="url(#clip_25)">
<g clip-path="url(#clip_26)">
<path transform="matrix(.9999958,0,0,-.9999992,.0017700195,841.88949)" stroke-width="5.62389" stroke-linecap="round" stroke-linejoin="round" fill="none" stroke="#d20000" d="M430.293 830.0195 429.4225 680.5944"/>
</g>
</g>
<g clip-path="url(#clip_27)">
<g clip-path="url(#clip_28)">
<path transform="matrix(.9999992,0,0,-.9999997,.00039672853,841.88986)" stroke-width="5.62389" stroke-linecap="round" stroke-linejoin="round" fill="none" stroke="#d20000" d="M444.6527 677.2852C475.5347 675.6031 499.206 649.2047 497.5239 618.3227 495.8419 587.4407 469.4435 563.7695 438.5615 565.4515 407.6794 567.1336 384.0082 593.532 385.6903 624.414 387.3723 655.296 413.7707 678.9672 444.6527 677.2852Z"/>
</g>
</g>
<g clip-path="url(#clip_29)">
<g clip-path="url(#clip_30)">
<path transform="matrix(.9999912,0,0,-.9999993,.0038452149,841.8898)" stroke-width="5.62389" stroke-linecap="round" stroke-linejoin="round" fill="none" stroke="#d20000" d="M438.5614 565.4515 440.7678 403.1325"/>
</g>
</g>
<g clip-path="url(#clip_31)">
<g clip-path="url(#clip_32)">
<path transform="matrix(.9999998,0,0,-.9999943,.000061035159,841.8871)" stroke-width="5.62389" stroke-linecap="round" stroke-linejoin="round" fill="none" stroke="#d20000" d="M376.2463 507.3664 519.0703 507.3098"/>
</g>
</g>
<g clip-path="url(#clip_33)">
<g clip-path="url(#clip_34)">
<path transform="matrix(1,0,0,-.9999998,24.54546,800.1818)" d="M5.454546 758.1818H540.5455V5.454546H5.454546V758.1818Z" fill-opacity="0"/>
<path transform="matrix(.5454546,0,0,.5454545,0,.00012207031)" stroke-width="10" stroke-linecap="butt" stroke-miterlimit="10" stroke-linejoin="miter" fill="none" stroke="#000000" stroke-opacity="0" d="M50 72H1041V1462H50V72Z"/>
</g>
</g>
</svg>
